<mxfile host="app.diagrams.net" agent="Mozilla/5.0 (Windows NT 10.0; Win64; x64; rv:143.0) Gecko/20100101 Firefox/143.0" version="28.2.7">
  <diagram name="Página-1" id="2LB8eNJpc_IQiajI4IPt">
    <mxGraphModel dx="2935" dy="535" grid="1" gridSize="10" guides="1" tooltips="1" connect="1" arrows="1" fold="1" page="1" pageScale="1" pageWidth="827" pageHeight="1169" math="0" shadow="0">
      <root>
        <mxCell id="0" />
        <mxCell id="1" parent="0" />
        <mxCell id="6HYCHuuXtSyffhq5qboj-1" value="Vivero" style="rounded=0;whiteSpace=wrap;html=1;" parent="1" vertex="1">
          <mxGeometry x="230" y="870" width="120" height="60" as="geometry" />
        </mxCell>
        <mxCell id="6HYCHuuXtSyffhq5qboj-2" value="Zona" style="shape=process;whiteSpace=wrap;html=1;backgroundOutline=1;" parent="1" vertex="1">
          <mxGeometry x="-130" y="870" width="120" height="60" as="geometry" />
        </mxCell>
        <mxCell id="6HYCHuuXtSyffhq5qboj-3" value="Tiene" style="rhombus;whiteSpace=wrap;html=1;labelPosition=center;verticalLabelPosition=middle;align=center;verticalAlign=middle;" parent="1" vertex="1">
          <mxGeometry x="80" y="860" width="80" height="80" as="geometry" />
        </mxCell>
        <mxCell id="6HYCHuuXtSyffhq5qboj-5" value="&lt;u&gt;Código&lt;/u&gt;" style="ellipse;whiteSpace=wrap;html=1;aspect=fixed;" parent="1" vertex="1">
          <mxGeometry x="390" y="820" width="80" height="80" as="geometry" />
        </mxCell>
        <mxCell id="6HYCHuuXtSyffhq5qboj-6" value="Nombre" style="ellipse;whiteSpace=wrap;html=1;aspect=fixed;" parent="1" vertex="1">
          <mxGeometry x="390" y="900" width="80" height="80" as="geometry" />
        </mxCell>
        <mxCell id="6HYCHuuXtSyffhq5qboj-7" value="Latitud" style="ellipse;whiteSpace=wrap;html=1;aspect=fixed;" parent="1" vertex="1">
          <mxGeometry x="330" y="960" width="80" height="80" as="geometry" />
        </mxCell>
        <mxCell id="6HYCHuuXtSyffhq5qboj-8" value="&lt;div&gt;Longitud&lt;/div&gt;" style="ellipse;whiteSpace=wrap;html=1;aspect=fixed;" parent="1" vertex="1">
          <mxGeometry x="250" y="970" width="80" height="80" as="geometry" />
        </mxCell>
        <mxCell id="6HYCHuuXtSyffhq5qboj-9" value="Latitud" style="ellipse;whiteSpace=wrap;html=1;aspect=fixed;" parent="1" vertex="1">
          <mxGeometry x="10" y="980" width="80" height="80" as="geometry" />
        </mxCell>
        <mxCell id="6HYCHuuXtSyffhq5qboj-10" value="&lt;div&gt;Longitud&lt;/div&gt;" style="ellipse;whiteSpace=wrap;html=1;aspect=fixed;" parent="1" vertex="1">
          <mxGeometry x="-70" y="980" width="80" height="80" as="geometry" />
        </mxCell>
        <mxCell id="6HYCHuuXtSyffhq5qboj-12" value="Producto" style="rounded=0;whiteSpace=wrap;html=1;" parent="1" vertex="1">
          <mxGeometry x="-130" y="570" width="120" height="60" as="geometry" />
        </mxCell>
        <mxCell id="6HYCHuuXtSyffhq5qboj-13" value="Está en" style="rhombus;whiteSpace=wrap;html=1;" parent="1" vertex="1">
          <mxGeometry x="-110" y="720" width="80" height="80" as="geometry" />
        </mxCell>
        <mxCell id="6HYCHuuXtSyffhq5qboj-15" value="&lt;u&gt;Código&lt;/u&gt;" style="ellipse;whiteSpace=wrap;html=1;aspect=fixed;" parent="1" vertex="1">
          <mxGeometry x="10" y="440" width="80" height="80" as="geometry" />
        </mxCell>
        <mxCell id="6HYCHuuXtSyffhq5qboj-16" value="Tipo" style="ellipse;whiteSpace=wrap;html=1;aspect=fixed;" parent="1" vertex="1">
          <mxGeometry x="-110" y="440" width="80" height="80" as="geometry" />
        </mxCell>
        <mxCell id="6HYCHuuXtSyffhq5qboj-17" value="Cantidad" style="ellipse;whiteSpace=wrap;html=1;aspect=fixed;" parent="1" vertex="1">
          <mxGeometry x="-220" y="720" width="80" height="80" as="geometry" />
        </mxCell>
        <mxCell id="6HYCHuuXtSyffhq5qboj-18" value="Empleado" style="rounded=0;whiteSpace=wrap;html=1;" parent="1" vertex="1">
          <mxGeometry x="-675" y="870" width="120" height="60" as="geometry" />
        </mxCell>
        <mxCell id="6HYCHuuXtSyffhq5qboj-19" value="&lt;u&gt;Dni&lt;/u&gt;" style="ellipse;whiteSpace=wrap;html=1;aspect=fixed;" parent="1" vertex="1">
          <mxGeometry x="-775" y="960" width="80" height="80" as="geometry" />
        </mxCell>
        <mxCell id="6HYCHuuXtSyffhq5qboj-20" value="Nombre Completo" style="ellipse;whiteSpace=wrap;html=1;aspect=fixed;" parent="1" vertex="1">
          <mxGeometry x="-655" y="980" width="80" height="80" as="geometry" />
        </mxCell>
        <mxCell id="6HYCHuuXtSyffhq5qboj-21" value="Teléfono" style="ellipse;whiteSpace=wrap;html=1;aspect=fixed;" parent="1" vertex="1">
          <mxGeometry x="-800" y="860" width="80" height="80" as="geometry" />
        </mxCell>
        <mxCell id="6HYCHuuXtSyffhq5qboj-23" value="Cliente" style="rounded=0;whiteSpace=wrap;html=1;direction=east;" parent="1" vertex="1">
          <mxGeometry x="-1050" y="570" width="120" height="60" as="geometry" />
        </mxCell>
        <mxCell id="6HYCHuuXtSyffhq5qboj-24" value="Trabaja" style="rhombus;whiteSpace=wrap;html=1;" parent="1" vertex="1">
          <mxGeometry x="-430" y="860" width="80" height="80" as="geometry" />
        </mxCell>
        <mxCell id="6HYCHuuXtSyffhq5qboj-25" value="&lt;u&gt;Fecha comienzo&lt;/u&gt;" style="ellipse;whiteSpace=wrap;html=1;aspect=fixed;" parent="1" vertex="1">
          <mxGeometry x="-380" y="980" width="80" height="80" as="geometry" />
        </mxCell>
        <mxCell id="6HYCHuuXtSyffhq5qboj-26" value="Fecha fin" style="ellipse;whiteSpace=wrap;html=1;aspect=fixed;" parent="1" vertex="1">
          <mxGeometry x="-475" y="980" width="80" height="80" as="geometry" />
        </mxCell>
        <mxCell id="6HYCHuuXtSyffhq5qboj-27" value="Tipo" style="ellipse;whiteSpace=wrap;html=1;aspect=fixed;" parent="1" vertex="1">
          <mxGeometry x="-150" y="980" width="80" height="80" as="geometry" />
        </mxCell>
        <mxCell id="6HYCHuuXtSyffhq5qboj-28" value="&lt;u&gt;Identificador&lt;/u&gt;" style="ellipse;whiteSpace=wrap;html=1;aspect=fixed;" parent="1" vertex="1">
          <mxGeometry x="-230" y="980" width="80" height="80" as="geometry" />
        </mxCell>
        <mxCell id="6HYCHuuXtSyffhq5qboj-30" value="Compra" style="rounded=0;whiteSpace=wrap;html=1;" parent="1" vertex="1">
          <mxGeometry x="-675" y="570" width="120" height="60" as="geometry" />
        </mxCell>
        <mxCell id="6HYCHuuXtSyffhq5qboj-31" value="&lt;u&gt;IdCompra&lt;/u&gt;" style="ellipse;whiteSpace=wrap;html=1;aspect=fixed;" parent="1" vertex="1">
          <mxGeometry x="-565" y="445" width="80" height="80" as="geometry" />
        </mxCell>
        <mxCell id="6HYCHuuXtSyffhq5qboj-32" value="Precio total" style="ellipse;whiteSpace=wrap;html=1;aspect=fixed;dashed=1;" parent="1" vertex="1">
          <mxGeometry x="-745" y="440" width="80" height="80" as="geometry" />
        </mxCell>
        <mxCell id="6HYCHuuXtSyffhq5qboj-33" value="Fecha" style="ellipse;whiteSpace=wrap;html=1;aspect=fixed;" parent="1" vertex="1">
          <mxGeometry x="-655" y="440" width="80" height="80" as="geometry" />
        </mxCell>
        <mxCell id="6HYCHuuXtSyffhq5qboj-34" value="Gestiona" style="rhombus;whiteSpace=wrap;html=1;" parent="1" vertex="1">
          <mxGeometry x="-655" y="720" width="80" height="80" as="geometry" />
        </mxCell>
        <mxCell id="6HYCHuuXtSyffhq5qboj-37" value="Contiene" style="rhombus;whiteSpace=wrap;html=1;" parent="1" vertex="1">
          <mxGeometry x="-430" y="560" width="80" height="80" as="geometry" />
        </mxCell>
        <mxCell id="6HYCHuuXtSyffhq5qboj-40" value="" style="endArrow=none;html=1;rounded=0;entryX=0.5;entryY=0;entryDx=0;entryDy=0;exitX=0.5;exitY=1;exitDx=0;exitDy=0;" parent="1" source="6HYCHuuXtSyffhq5qboj-30" target="6HYCHuuXtSyffhq5qboj-34" edge="1">
          <mxGeometry width="50" height="50" relative="1" as="geometry">
            <mxPoint x="-350" y="645" as="sourcePoint" />
            <mxPoint x="-300" y="595" as="targetPoint" />
          </mxGeometry>
        </mxCell>
        <mxCell id="6HYCHuuXtSyffhq5qboj-41" value="" style="endArrow=none;html=1;rounded=0;entryX=0.5;entryY=0;entryDx=0;entryDy=0;exitX=0.5;exitY=1;exitDx=0;exitDy=0;" parent="1" source="6HYCHuuXtSyffhq5qboj-34" target="6HYCHuuXtSyffhq5qboj-18" edge="1">
          <mxGeometry width="50" height="50" relative="1" as="geometry">
            <mxPoint x="-340" y="655" as="sourcePoint" />
            <mxPoint x="-290" y="605" as="targetPoint" />
          </mxGeometry>
        </mxCell>
        <mxCell id="6HYCHuuXtSyffhq5qboj-42" value="" style="endArrow=none;html=1;rounded=0;entryX=0;entryY=0.5;entryDx=0;entryDy=0;exitX=1;exitY=0.5;exitDx=0;exitDy=0;" parent="1" source="6HYCHuuXtSyffhq5qboj-18" target="6HYCHuuXtSyffhq5qboj-24" edge="1">
          <mxGeometry width="50" height="50" relative="1" as="geometry">
            <mxPoint x="-330" y="665" as="sourcePoint" />
            <mxPoint x="-280" y="615" as="targetPoint" />
          </mxGeometry>
        </mxCell>
        <mxCell id="6HYCHuuXtSyffhq5qboj-43" value="" style="endArrow=none;html=1;rounded=0;entryX=1;entryY=0.5;entryDx=0;entryDy=0;exitX=0;exitY=0.5;exitDx=0;exitDy=0;" parent="1" source="6HYCHuuXtSyffhq5qboj-2" target="6HYCHuuXtSyffhq5qboj-24" edge="1">
          <mxGeometry width="50" height="50" relative="1" as="geometry">
            <mxPoint x="-320" y="675" as="sourcePoint" />
            <mxPoint x="-270" y="625" as="targetPoint" />
          </mxGeometry>
        </mxCell>
        <mxCell id="6HYCHuuXtSyffhq5qboj-46" value="" style="endArrow=none;html=1;rounded=0;entryX=0;entryY=0.5;entryDx=0;entryDy=0;exitX=1;exitY=0.5;exitDx=0;exitDy=0;" parent="1" source="6HYCHuuXtSyffhq5qboj-30" target="6HYCHuuXtSyffhq5qboj-37" edge="1">
          <mxGeometry width="50" height="50" relative="1" as="geometry">
            <mxPoint x="-290" y="705" as="sourcePoint" />
            <mxPoint x="-240" y="655" as="targetPoint" />
          </mxGeometry>
        </mxCell>
        <mxCell id="6HYCHuuXtSyffhq5qboj-47" value="" style="endArrow=none;html=1;rounded=0;entryX=0;entryY=0.5;entryDx=0;entryDy=0;exitX=1;exitY=0.5;exitDx=0;exitDy=0;" parent="1" source="6HYCHuuXtSyffhq5qboj-37" target="6HYCHuuXtSyffhq5qboj-12" edge="1">
          <mxGeometry width="50" height="50" relative="1" as="geometry">
            <mxPoint x="-200" y="715" as="sourcePoint" />
            <mxPoint x="-150" y="665" as="targetPoint" />
          </mxGeometry>
        </mxCell>
        <mxCell id="6HYCHuuXtSyffhq5qboj-48" value="1:n" style="text;html=1;align=center;verticalAlign=middle;whiteSpace=wrap;rounded=0;" parent="1" vertex="1">
          <mxGeometry x="-555" y="860" width="60" height="30" as="geometry" />
        </mxCell>
        <mxCell id="6HYCHuuXtSyffhq5qboj-49" value="1:n" style="text;html=1;align=center;verticalAlign=middle;whiteSpace=wrap;rounded=0;" parent="1" vertex="1">
          <mxGeometry x="-200" y="860" width="60" height="30" as="geometry" />
        </mxCell>
        <mxCell id="6HYCHuuXtSyffhq5qboj-50" value="N:M" style="text;html=1;align=center;verticalAlign=middle;whiteSpace=wrap;rounded=0;" parent="1" vertex="1">
          <mxGeometry x="-420" y="820" width="60" height="30" as="geometry" />
        </mxCell>
        <mxCell id="6HYCHuuXtSyffhq5qboj-53" value="1:N" style="text;html=1;align=center;verticalAlign=middle;whiteSpace=wrap;rounded=0;" parent="1" vertex="1">
          <mxGeometry x="-593" y="720" width="60" height="30" as="geometry" />
        </mxCell>
        <mxCell id="6HYCHuuXtSyffhq5qboj-57" value="N:M" style="text;html=1;align=center;verticalAlign=middle;whiteSpace=wrap;rounded=0;" parent="1" vertex="1">
          <mxGeometry x="-420" y="525" width="60" height="30" as="geometry" />
        </mxCell>
        <mxCell id="6HYCHuuXtSyffhq5qboj-58" value="Cantidad" style="ellipse;whiteSpace=wrap;html=1;aspect=fixed;" parent="1" vertex="1">
          <mxGeometry x="-430" y="670" width="80" height="80" as="geometry" />
        </mxCell>
        <mxCell id="6HYCHuuXtSyffhq5qboj-59" value="0:n" style="text;html=1;align=center;verticalAlign=middle;whiteSpace=wrap;rounded=0;" parent="1" vertex="1">
          <mxGeometry x="-555" y="600" width="60" height="30" as="geometry" />
        </mxCell>
        <mxCell id="6HYCHuuXtSyffhq5qboj-60" value="1:n" style="text;html=1;align=center;verticalAlign=middle;whiteSpace=wrap;rounded=0;" parent="1" vertex="1">
          <mxGeometry x="-190" y="560" width="60" height="30" as="geometry" />
        </mxCell>
        <mxCell id="6HYCHuuXtSyffhq5qboj-62" value="1:n" style="text;html=1;align=center;verticalAlign=middle;whiteSpace=wrap;rounded=0;" parent="1" vertex="1">
          <mxGeometry x="-665" y="630" width="60" height="30" as="geometry" />
        </mxCell>
        <mxCell id="6HYCHuuXtSyffhq5qboj-64" value="&lt;u&gt;Código&lt;/u&gt;" style="ellipse;whiteSpace=wrap;html=1;aspect=fixed;" parent="1" vertex="1">
          <mxGeometry x="-1030" y="440" width="80" height="80" as="geometry" />
        </mxCell>
        <mxCell id="6HYCHuuXtSyffhq5qboj-65" value="ClienteNoIdentificado" style="rounded=0;whiteSpace=wrap;html=1;" parent="1" vertex="1">
          <mxGeometry x="-970" y="780" width="120" height="60" as="geometry" />
        </mxCell>
        <mxCell id="6HYCHuuXtSyffhq5qboj-66" value="ClienteTajinastePlus" style="rounded=0;whiteSpace=wrap;html=1;" parent="1" vertex="1">
          <mxGeometry x="-1140" y="780" width="120" height="60" as="geometry" />
        </mxCell>
        <mxCell id="6HYCHuuXtSyffhq5qboj-67" value="DNI" style="ellipse;whiteSpace=wrap;html=1;aspect=fixed;" parent="1" vertex="1">
          <mxGeometry x="-1250" y="770" width="80" height="80" as="geometry" />
        </mxCell>
        <mxCell id="6HYCHuuXtSyffhq5qboj-68" value="Correo" style="ellipse;whiteSpace=wrap;html=1;aspect=fixed;" parent="1" vertex="1">
          <mxGeometry x="-1145" y="880" width="80" height="80" as="geometry" />
        </mxCell>
        <mxCell id="6HYCHuuXtSyffhq5qboj-69" value="Teléfono" style="ellipse;whiteSpace=wrap;html=1;aspect=fixed;" parent="1" vertex="1">
          <mxGeometry x="-1225" y="850" width="80" height="80" as="geometry" />
        </mxCell>
        <mxCell id="6HYCHuuXtSyffhq5qboj-70" value="Fecha Ingreso" style="ellipse;whiteSpace=wrap;html=1;aspect=fixed;" parent="1" vertex="1">
          <mxGeometry x="-1055" y="880" width="80" height="80" as="geometry" />
        </mxCell>
        <mxCell id="6HYCHuuXtSyffhq5qboj-71" value="" style="triangle;whiteSpace=wrap;html=1;direction=south;" parent="1" vertex="1">
          <mxGeometry x="-1030" y="710" width="80" height="30" as="geometry" />
        </mxCell>
        <mxCell id="6HYCHuuXtSyffhq5qboj-72" value="" style="ellipse;whiteSpace=wrap;html=1;aspect=fixed;" parent="1" vertex="1">
          <mxGeometry x="-1005" y="680" width="30" height="30" as="geometry" />
        </mxCell>
        <mxCell id="6HYCHuuXtSyffhq5qboj-73" value="" style="endArrow=none;html=1;rounded=0;entryX=0.5;entryY=0;entryDx=0;entryDy=0;exitX=0.5;exitY=0;exitDx=0;exitDy=0;" parent="1" source="6HYCHuuXtSyffhq5qboj-65" target="6HYCHuuXtSyffhq5qboj-71" edge="1">
          <mxGeometry width="50" height="50" relative="1" as="geometry">
            <mxPoint x="-555" y="655" as="sourcePoint" />
            <mxPoint x="-505" y="605" as="targetPoint" />
          </mxGeometry>
        </mxCell>
        <mxCell id="6HYCHuuXtSyffhq5qboj-74" value="" style="endArrow=none;html=1;rounded=0;entryX=0.5;entryY=1;entryDx=0;entryDy=0;exitX=0.5;exitY=0;exitDx=0;exitDy=0;" parent="1" source="6HYCHuuXtSyffhq5qboj-66" target="6HYCHuuXtSyffhq5qboj-71" edge="1">
          <mxGeometry width="50" height="50" relative="1" as="geometry">
            <mxPoint x="-545" y="665" as="sourcePoint" />
            <mxPoint x="-495" y="615" as="targetPoint" />
          </mxGeometry>
        </mxCell>
        <mxCell id="6HYCHuuXtSyffhq5qboj-75" value="" style="endArrow=none;html=1;rounded=0;entryX=0.5;entryY=1;entryDx=0;entryDy=0;exitX=0.5;exitY=0;exitDx=0;exitDy=0;" parent="1" source="6HYCHuuXtSyffhq5qboj-72" target="6HYCHuuXtSyffhq5qboj-23" edge="1">
          <mxGeometry width="50" height="50" relative="1" as="geometry">
            <mxPoint x="-535" y="675" as="sourcePoint" />
            <mxPoint x="-485" y="625" as="targetPoint" />
          </mxGeometry>
        </mxCell>
        <mxCell id="6HYCHuuXtSyffhq5qboj-79" value="Realiza" style="rhombus;whiteSpace=wrap;html=1;" parent="1" vertex="1">
          <mxGeometry x="-840" y="560" width="80" height="80" as="geometry" />
        </mxCell>
        <mxCell id="6HYCHuuXtSyffhq5qboj-80" value="" style="endArrow=none;html=1;rounded=0;entryX=1;entryY=0.5;entryDx=0;entryDy=0;exitX=0;exitY=0.5;exitDx=0;exitDy=0;" parent="1" source="6HYCHuuXtSyffhq5qboj-79" target="6HYCHuuXtSyffhq5qboj-23" edge="1">
          <mxGeometry width="50" height="50" relative="1" as="geometry">
            <mxPoint x="-560" y="640" as="sourcePoint" />
            <mxPoint x="-510" y="590" as="targetPoint" />
          </mxGeometry>
        </mxCell>
        <mxCell id="6HYCHuuXtSyffhq5qboj-83" value="1:1" style="text;html=1;align=center;verticalAlign=middle;whiteSpace=wrap;rounded=0;" parent="1" vertex="1">
          <mxGeometry x="-930" y="560" width="60" height="30" as="geometry" />
        </mxCell>
        <mxCell id="6HYCHuuXtSyffhq5qboj-84" value="1:N" style="text;html=1;align=center;verticalAlign=middle;whiteSpace=wrap;rounded=0;" parent="1" vertex="1">
          <mxGeometry x="-830" y="520" width="60" height="30" as="geometry" />
        </mxCell>
        <mxCell id="6HYCHuuXtSyffhq5qboj-89" value="1:1" style="text;html=1;align=center;verticalAlign=middle;resizable=0;points=[];autosize=1;strokeColor=none;fillColor=none;" parent="1" vertex="1">
          <mxGeometry x="-660" y="840" width="40" height="30" as="geometry" />
        </mxCell>
        <mxCell id="6HYCHuuXtSyffhq5qboj-90" value="" style="endArrow=none;html=1;rounded=0;entryX=1;entryY=0.5;entryDx=0;entryDy=0;exitX=0;exitY=0.5;exitDx=0;exitDy=0;" parent="1" source="6HYCHuuXtSyffhq5qboj-30" target="6HYCHuuXtSyffhq5qboj-79" edge="1">
          <mxGeometry width="50" height="50" relative="1" as="geometry">
            <mxPoint x="-500" y="720" as="sourcePoint" />
            <mxPoint x="-450" y="670" as="targetPoint" />
          </mxGeometry>
        </mxCell>
        <mxCell id="6HYCHuuXtSyffhq5qboj-93" value="0:n" style="text;html=1;align=center;verticalAlign=middle;resizable=0;points=[];autosize=1;strokeColor=none;fillColor=none;" parent="1" vertex="1">
          <mxGeometry x="-720" y="570" width="40" height="30" as="geometry" />
        </mxCell>
        <mxCell id="6HYCHuuXtSyffhq5qboj-94" value="" style="endArrow=none;html=1;rounded=0;entryX=0;entryY=0.5;entryDx=0;entryDy=0;exitX=1;exitY=0.5;exitDx=0;exitDy=0;" parent="1" source="6HYCHuuXtSyffhq5qboj-2" target="6HYCHuuXtSyffhq5qboj-3" edge="1">
          <mxGeometry width="50" height="50" relative="1" as="geometry">
            <mxPoint x="-30" y="940" as="sourcePoint" />
            <mxPoint x="20" y="890" as="targetPoint" />
          </mxGeometry>
        </mxCell>
        <mxCell id="6HYCHuuXtSyffhq5qboj-95" value="" style="endArrow=none;html=1;rounded=0;entryX=0;entryY=0.5;entryDx=0;entryDy=0;exitX=1;exitY=0.5;exitDx=0;exitDy=0;" parent="1" source="6HYCHuuXtSyffhq5qboj-3" target="6HYCHuuXtSyffhq5qboj-1" edge="1">
          <mxGeometry width="50" height="50" relative="1" as="geometry">
            <mxPoint x="-20" y="950" as="sourcePoint" />
            <mxPoint x="30" y="900" as="targetPoint" />
          </mxGeometry>
        </mxCell>
        <mxCell id="6HYCHuuXtSyffhq5qboj-96" value="1:n" style="text;html=1;align=center;verticalAlign=middle;whiteSpace=wrap;rounded=0;" parent="1" vertex="1">
          <mxGeometry x="-20" y="870" width="60" height="30" as="geometry" />
        </mxCell>
        <mxCell id="6HYCHuuXtSyffhq5qboj-97" value="1:1" style="text;html=1;align=center;verticalAlign=middle;whiteSpace=wrap;rounded=0;" parent="1" vertex="1">
          <mxGeometry x="180" y="870" width="60" height="30" as="geometry" />
        </mxCell>
        <mxCell id="6HYCHuuXtSyffhq5qboj-98" value="1:N" style="text;html=1;align=center;verticalAlign=middle;resizable=0;points=[];autosize=1;strokeColor=none;fillColor=none;" parent="1" vertex="1">
          <mxGeometry x="100" y="830" width="40" height="30" as="geometry" />
        </mxCell>
        <mxCell id="6HYCHuuXtSyffhq5qboj-99" value="" style="endArrow=none;html=1;rounded=0;entryX=0.5;entryY=1;entryDx=0;entryDy=0;exitX=0.5;exitY=0;exitDx=0;exitDy=0;" parent="1" source="6HYCHuuXtSyffhq5qboj-2" target="6HYCHuuXtSyffhq5qboj-13" edge="1">
          <mxGeometry width="50" height="50" relative="1" as="geometry">
            <mxPoint x="-150" y="870" as="sourcePoint" />
            <mxPoint x="-100" y="820" as="targetPoint" />
          </mxGeometry>
        </mxCell>
        <mxCell id="6HYCHuuXtSyffhq5qboj-100" value="" style="endArrow=none;html=1;rounded=0;entryX=0.5;entryY=1;entryDx=0;entryDy=0;exitX=0.5;exitY=0;exitDx=0;exitDy=0;" parent="1" source="6HYCHuuXtSyffhq5qboj-13" target="6HYCHuuXtSyffhq5qboj-12" edge="1">
          <mxGeometry width="50" height="50" relative="1" as="geometry">
            <mxPoint x="-140" y="880" as="sourcePoint" />
            <mxPoint x="-90" y="830" as="targetPoint" />
          </mxGeometry>
        </mxCell>
        <mxCell id="6HYCHuuXtSyffhq5qboj-101" value="1:n" style="text;html=1;align=center;verticalAlign=middle;whiteSpace=wrap;rounded=0;" parent="1" vertex="1">
          <mxGeometry x="-70" y="840" width="60" height="30" as="geometry" />
        </mxCell>
        <mxCell id="6HYCHuuXtSyffhq5qboj-102" value="1:n" style="text;html=1;align=center;verticalAlign=middle;resizable=0;points=[];autosize=1;strokeColor=none;fillColor=none;" parent="1" vertex="1">
          <mxGeometry x="-60" y="630" width="40" height="30" as="geometry" />
        </mxCell>
        <mxCell id="6HYCHuuXtSyffhq5qboj-103" value="N:M" style="text;html=1;align=center;verticalAlign=middle;whiteSpace=wrap;rounded=0;" parent="1" vertex="1">
          <mxGeometry x="-20" y="745" width="60" height="30" as="geometry" />
        </mxCell>
        <mxCell id="6HYCHuuXtSyffhq5qboj-104" value="" style="endArrow=none;html=1;rounded=0;entryX=0;entryY=0.5;entryDx=0;entryDy=0;exitX=1;exitY=0.5;exitDx=0;exitDy=0;" parent="1" source="6HYCHuuXtSyffhq5qboj-21" target="6HYCHuuXtSyffhq5qboj-18" edge="1">
          <mxGeometry width="50" height="50" relative="1" as="geometry">
            <mxPoint x="-570" y="1015" as="sourcePoint" />
            <mxPoint x="-520" y="965" as="targetPoint" />
          </mxGeometry>
        </mxCell>
        <mxCell id="6HYCHuuXtSyffhq5qboj-105" value="" style="endArrow=none;html=1;rounded=0;entryX=0;entryY=1;entryDx=0;entryDy=0;exitX=1;exitY=0;exitDx=0;exitDy=0;" parent="1" source="6HYCHuuXtSyffhq5qboj-19" target="6HYCHuuXtSyffhq5qboj-18" edge="1">
          <mxGeometry width="50" height="50" relative="1" as="geometry">
            <mxPoint x="-560" y="1025" as="sourcePoint" />
            <mxPoint x="-510" y="975" as="targetPoint" />
          </mxGeometry>
        </mxCell>
        <mxCell id="6HYCHuuXtSyffhq5qboj-106" value="" style="endArrow=none;html=1;rounded=0;entryX=0.5;entryY=1;entryDx=0;entryDy=0;exitX=0.5;exitY=0;exitDx=0;exitDy=0;" parent="1" source="6HYCHuuXtSyffhq5qboj-20" target="6HYCHuuXtSyffhq5qboj-18" edge="1">
          <mxGeometry width="50" height="50" relative="1" as="geometry">
            <mxPoint x="-550" y="1035" as="sourcePoint" />
            <mxPoint x="-500" y="985" as="targetPoint" />
          </mxGeometry>
        </mxCell>
        <mxCell id="6HYCHuuXtSyffhq5qboj-109" value="" style="endArrow=none;html=1;rounded=0;exitX=1;exitY=1;exitDx=0;exitDy=0;entryX=0.25;entryY=0;entryDx=0;entryDy=0;" parent="1" source="6HYCHuuXtSyffhq5qboj-32" target="6HYCHuuXtSyffhq5qboj-30" edge="1">
          <mxGeometry width="50" height="50" relative="1" as="geometry">
            <mxPoint x="-650" y="700" as="sourcePoint" />
            <mxPoint x="-600" y="650" as="targetPoint" />
          </mxGeometry>
        </mxCell>
        <mxCell id="6HYCHuuXtSyffhq5qboj-110" value="" style="endArrow=none;html=1;rounded=0;entryX=0.5;entryY=0;entryDx=0;entryDy=0;exitX=0.5;exitY=1;exitDx=0;exitDy=0;" parent="1" source="6HYCHuuXtSyffhq5qboj-33" target="6HYCHuuXtSyffhq5qboj-30" edge="1">
          <mxGeometry width="50" height="50" relative="1" as="geometry">
            <mxPoint x="-640" y="710" as="sourcePoint" />
            <mxPoint x="-590" y="660" as="targetPoint" />
          </mxGeometry>
        </mxCell>
        <mxCell id="6HYCHuuXtSyffhq5qboj-111" value="" style="endArrow=none;html=1;rounded=0;entryX=1;entryY=0;entryDx=0;entryDy=0;exitX=0.5;exitY=1;exitDx=0;exitDy=0;" parent="1" source="6HYCHuuXtSyffhq5qboj-31" target="6HYCHuuXtSyffhq5qboj-30" edge="1">
          <mxGeometry width="50" height="50" relative="1" as="geometry">
            <mxPoint x="-630" y="720" as="sourcePoint" />
            <mxPoint x="-580" y="670" as="targetPoint" />
          </mxGeometry>
        </mxCell>
        <mxCell id="6HYCHuuXtSyffhq5qboj-112" value="" style="endArrow=none;html=1;rounded=0;entryX=0.5;entryY=1;entryDx=0;entryDy=0;exitX=0.5;exitY=0;exitDx=0;exitDy=0;" parent="1" source="6HYCHuuXtSyffhq5qboj-23" target="6HYCHuuXtSyffhq5qboj-64" edge="1">
          <mxGeometry width="50" height="50" relative="1" as="geometry">
            <mxPoint x="-550" y="170" as="sourcePoint" />
            <mxPoint x="-500" y="120" as="targetPoint" />
          </mxGeometry>
        </mxCell>
        <mxCell id="6HYCHuuXtSyffhq5qboj-113" value="" style="endArrow=none;html=1;rounded=0;exitX=1;exitY=0;exitDx=0;exitDy=0;entryX=0;entryY=1;entryDx=0;entryDy=0;" parent="1" source="6HYCHuuXtSyffhq5qboj-69" target="6HYCHuuXtSyffhq5qboj-66" edge="1">
          <mxGeometry width="50" height="50" relative="1" as="geometry">
            <mxPoint x="-440" y="380" as="sourcePoint" />
            <mxPoint x="-390" y="330" as="targetPoint" />
          </mxGeometry>
        </mxCell>
        <mxCell id="6HYCHuuXtSyffhq5qboj-114" value="" style="endArrow=none;html=1;rounded=0;exitX=0.5;exitY=1;exitDx=0;exitDy=0;entryX=0.5;entryY=0;entryDx=0;entryDy=0;" parent="1" source="6HYCHuuXtSyffhq5qboj-66" target="6HYCHuuXtSyffhq5qboj-68" edge="1">
          <mxGeometry width="50" height="50" relative="1" as="geometry">
            <mxPoint x="-430" y="390" as="sourcePoint" />
            <mxPoint x="-380" y="340" as="targetPoint" />
          </mxGeometry>
        </mxCell>
        <mxCell id="6HYCHuuXtSyffhq5qboj-115" value="" style="endArrow=none;html=1;rounded=0;entryX=0;entryY=0;entryDx=0;entryDy=0;exitX=0.5;exitY=1;exitDx=0;exitDy=0;" parent="1" source="6HYCHuuXtSyffhq5qboj-66" target="6HYCHuuXtSyffhq5qboj-70" edge="1">
          <mxGeometry width="50" height="50" relative="1" as="geometry">
            <mxPoint x="-463" y="460" as="sourcePoint" />
            <mxPoint x="-413" y="410" as="targetPoint" />
          </mxGeometry>
        </mxCell>
        <mxCell id="6HYCHuuXtSyffhq5qboj-116" value="" style="endArrow=none;html=1;rounded=0;exitX=1;exitY=0.5;exitDx=0;exitDy=0;entryX=0;entryY=0.5;entryDx=0;entryDy=0;" parent="1" source="6HYCHuuXtSyffhq5qboj-67" target="6HYCHuuXtSyffhq5qboj-66" edge="1">
          <mxGeometry width="50" height="50" relative="1" as="geometry">
            <mxPoint x="-410" y="410" as="sourcePoint" />
            <mxPoint x="-360" y="360" as="targetPoint" />
          </mxGeometry>
        </mxCell>
        <mxCell id="6HYCHuuXtSyffhq5qboj-117" value="" style="endArrow=none;html=1;rounded=0;entryX=0.5;entryY=1;entryDx=0;entryDy=0;exitX=0.5;exitY=0;exitDx=0;exitDy=0;" parent="1" source="6HYCHuuXtSyffhq5qboj-58" target="6HYCHuuXtSyffhq5qboj-37" edge="1">
          <mxGeometry width="50" height="50" relative="1" as="geometry">
            <mxPoint x="-340" y="690" as="sourcePoint" />
            <mxPoint x="-290" y="640" as="targetPoint" />
          </mxGeometry>
        </mxCell>
        <mxCell id="6HYCHuuXtSyffhq5qboj-118" value="" style="endArrow=none;html=1;rounded=0;entryX=0;entryY=0.5;entryDx=0;entryDy=0;exitX=1;exitY=0.5;exitDx=0;exitDy=0;" parent="1" source="6HYCHuuXtSyffhq5qboj-17" target="6HYCHuuXtSyffhq5qboj-13" edge="1">
          <mxGeometry width="50" height="50" relative="1" as="geometry">
            <mxPoint x="-340" y="690" as="sourcePoint" />
            <mxPoint x="-290" y="640" as="targetPoint" />
          </mxGeometry>
        </mxCell>
        <mxCell id="6HYCHuuXtSyffhq5qboj-119" value="" style="endArrow=none;html=1;rounded=0;entryX=0;entryY=1;entryDx=0;entryDy=0;exitX=1;exitY=0;exitDx=0;exitDy=0;" parent="1" source="6HYCHuuXtSyffhq5qboj-12" target="6HYCHuuXtSyffhq5qboj-15" edge="1">
          <mxGeometry width="50" height="50" relative="1" as="geometry">
            <mxPoint x="30" y="640" as="sourcePoint" />
            <mxPoint x="80" y="590" as="targetPoint" />
          </mxGeometry>
        </mxCell>
        <mxCell id="6HYCHuuXtSyffhq5qboj-120" value="" style="endArrow=none;html=1;rounded=0;entryX=0.5;entryY=1;entryDx=0;entryDy=0;exitX=0.5;exitY=0;exitDx=0;exitDy=0;" parent="1" source="6HYCHuuXtSyffhq5qboj-12" target="6HYCHuuXtSyffhq5qboj-16" edge="1">
          <mxGeometry width="50" height="50" relative="1" as="geometry">
            <mxPoint x="-210" y="800" as="sourcePoint" />
            <mxPoint x="-160" y="750" as="targetPoint" />
          </mxGeometry>
        </mxCell>
        <mxCell id="6HYCHuuXtSyffhq5qboj-121" value="" style="endArrow=none;html=1;rounded=0;entryX=0.5;entryY=1;entryDx=0;entryDy=0;exitX=0.5;exitY=0;exitDx=0;exitDy=0;" parent="1" source="6HYCHuuXtSyffhq5qboj-8" target="6HYCHuuXtSyffhq5qboj-1" edge="1">
          <mxGeometry width="50" height="50" relative="1" as="geometry">
            <mxPoint x="220" y="910" as="sourcePoint" />
            <mxPoint x="270" y="860" as="targetPoint" />
          </mxGeometry>
        </mxCell>
        <mxCell id="6HYCHuuXtSyffhq5qboj-122" value="" style="endArrow=none;html=1;rounded=0;entryX=1;entryY=1;entryDx=0;entryDy=0;exitX=0.5;exitY=0;exitDx=0;exitDy=0;" parent="1" source="6HYCHuuXtSyffhq5qboj-7" target="6HYCHuuXtSyffhq5qboj-1" edge="1">
          <mxGeometry width="50" height="50" relative="1" as="geometry">
            <mxPoint x="230" y="920" as="sourcePoint" />
            <mxPoint x="280" y="870" as="targetPoint" />
          </mxGeometry>
        </mxCell>
        <mxCell id="6HYCHuuXtSyffhq5qboj-123" value="" style="endArrow=none;html=1;rounded=0;entryX=0;entryY=0;entryDx=0;entryDy=0;exitX=1;exitY=0.75;exitDx=0;exitDy=0;" parent="1" source="6HYCHuuXtSyffhq5qboj-1" target="6HYCHuuXtSyffhq5qboj-6" edge="1">
          <mxGeometry width="50" height="50" relative="1" as="geometry">
            <mxPoint x="240" y="930" as="sourcePoint" />
            <mxPoint x="290" y="880" as="targetPoint" />
          </mxGeometry>
        </mxCell>
        <mxCell id="6HYCHuuXtSyffhq5qboj-124" value="" style="endArrow=none;html=1;rounded=0;entryX=0;entryY=0.5;entryDx=0;entryDy=0;exitX=1;exitY=0.25;exitDx=0;exitDy=0;" parent="1" source="6HYCHuuXtSyffhq5qboj-1" target="6HYCHuuXtSyffhq5qboj-5" edge="1">
          <mxGeometry width="50" height="50" relative="1" as="geometry">
            <mxPoint x="250" y="940" as="sourcePoint" />
            <mxPoint x="300" y="890" as="targetPoint" />
          </mxGeometry>
        </mxCell>
        <mxCell id="6HYCHuuXtSyffhq5qboj-125" value="" style="endArrow=none;html=1;rounded=0;entryX=0;entryY=1;entryDx=0;entryDy=0;exitX=0.5;exitY=0;exitDx=0;exitDy=0;" parent="1" source="6HYCHuuXtSyffhq5qboj-26" target="6HYCHuuXtSyffhq5qboj-24" edge="1">
          <mxGeometry width="50" height="50" relative="1" as="geometry">
            <mxPoint x="-460" y="970" as="sourcePoint" />
            <mxPoint x="-410" y="920" as="targetPoint" />
          </mxGeometry>
        </mxCell>
        <mxCell id="6HYCHuuXtSyffhq5qboj-126" value="" style="endArrow=none;html=1;rounded=0;entryX=1;entryY=1;entryDx=0;entryDy=0;exitX=0.5;exitY=0;exitDx=0;exitDy=0;" parent="1" source="6HYCHuuXtSyffhq5qboj-25" target="6HYCHuuXtSyffhq5qboj-24" edge="1">
          <mxGeometry width="50" height="50" relative="1" as="geometry">
            <mxPoint x="-310" y="960" as="sourcePoint" />
            <mxPoint x="-260" y="910" as="targetPoint" />
          </mxGeometry>
        </mxCell>
        <mxCell id="6HYCHuuXtSyffhq5qboj-127" value="" style="endArrow=none;html=1;rounded=0;entryX=0.5;entryY=1;entryDx=0;entryDy=0;exitX=0.5;exitY=0;exitDx=0;exitDy=0;" parent="1" source="6HYCHuuXtSyffhq5qboj-27" target="6HYCHuuXtSyffhq5qboj-2" edge="1">
          <mxGeometry width="50" height="50" relative="1" as="geometry">
            <mxPoint x="90" y="1110" as="sourcePoint" />
            <mxPoint x="140" y="1060" as="targetPoint" />
          </mxGeometry>
        </mxCell>
        <mxCell id="6HYCHuuXtSyffhq5qboj-128" value="" style="endArrow=none;html=1;rounded=0;entryX=0.5;entryY=1;entryDx=0;entryDy=0;exitX=0.5;exitY=0;exitDx=0;exitDy=0;" parent="1" source="6HYCHuuXtSyffhq5qboj-10" target="6HYCHuuXtSyffhq5qboj-2" edge="1">
          <mxGeometry width="50" height="50" relative="1" as="geometry">
            <mxPoint x="100" y="1120" as="sourcePoint" />
            <mxPoint x="150" y="1070" as="targetPoint" />
          </mxGeometry>
        </mxCell>
        <mxCell id="6HYCHuuXtSyffhq5qboj-129" value="" style="endArrow=none;html=1;rounded=0;entryX=0.75;entryY=1;entryDx=0;entryDy=0;exitX=0.5;exitY=0;exitDx=0;exitDy=0;" parent="1" source="6HYCHuuXtSyffhq5qboj-9" target="6HYCHuuXtSyffhq5qboj-2" edge="1">
          <mxGeometry width="50" height="50" relative="1" as="geometry">
            <mxPoint x="110" y="1130" as="sourcePoint" />
            <mxPoint x="160" y="1080" as="targetPoint" />
          </mxGeometry>
        </mxCell>
        <mxCell id="6HYCHuuXtSyffhq5qboj-130" value="" style="endArrow=none;html=1;rounded=0;entryX=0.25;entryY=1;entryDx=0;entryDy=0;exitX=0.5;exitY=0;exitDx=0;exitDy=0;" parent="1" source="6HYCHuuXtSyffhq5qboj-28" target="6HYCHuuXtSyffhq5qboj-2" edge="1">
          <mxGeometry width="50" height="50" relative="1" as="geometry">
            <mxPoint x="120" y="1140" as="sourcePoint" />
            <mxPoint x="170" y="1090" as="targetPoint" />
          </mxGeometry>
        </mxCell>
        <mxCell id="M2H-ey_mgtbqknScUu9n-1" value="Nombre&lt;br&gt;Completo" style="ellipse;whiteSpace=wrap;html=1;aspect=fixed;" parent="1" vertex="1">
          <mxGeometry x="-970" y="880" width="80" height="80" as="geometry" />
        </mxCell>
        <mxCell id="M2H-ey_mgtbqknScUu9n-2" value="" style="endArrow=none;html=1;rounded=0;entryX=0.238;entryY=0.088;entryDx=0;entryDy=0;exitX=1;exitY=1;exitDx=0;exitDy=0;entryPerimeter=0;" parent="1" source="6HYCHuuXtSyffhq5qboj-66" target="M2H-ey_mgtbqknScUu9n-1" edge="1">
          <mxGeometry width="50" height="50" relative="1" as="geometry">
            <mxPoint x="-1020" y="870" as="sourcePoint" />
            <mxPoint x="-983" y="922" as="targetPoint" />
          </mxGeometry>
        </mxCell>
        <mxCell id="M2H-ey_mgtbqknScUu9n-3" value="Precio" style="ellipse;whiteSpace=wrap;html=1;aspect=fixed;" parent="1" vertex="1">
          <mxGeometry x="-230" y="440" width="80" height="80" as="geometry" />
        </mxCell>
        <mxCell id="M2H-ey_mgtbqknScUu9n-4" value="" style="endArrow=none;html=1;rounded=0;exitX=0;exitY=0;exitDx=0;exitDy=0;" parent="1" source="6HYCHuuXtSyffhq5qboj-12" target="M2H-ey_mgtbqknScUu9n-3" edge="1">
          <mxGeometry width="50" height="50" relative="1" as="geometry">
            <mxPoint x="-70" y="600" as="sourcePoint" />
            <mxPoint x="-70" y="550" as="targetPoint" />
          </mxGeometry>
        </mxCell>
        <mxCell id="M2H-ey_mgtbqknScUu9n-6" value="&lt;div&gt;Descripción&lt;/div&gt;" style="ellipse;whiteSpace=wrap;html=1;aspect=fixed;" parent="1" vertex="1">
          <mxGeometry x="50" y="560" width="80" height="80" as="geometry" />
        </mxCell>
        <mxCell id="M2H-ey_mgtbqknScUu9n-7" value="" style="endArrow=none;html=1;rounded=0;entryX=0;entryY=0.5;entryDx=0;entryDy=0;exitX=1;exitY=0.5;exitDx=0;exitDy=0;" parent="1" source="6HYCHuuXtSyffhq5qboj-12" target="M2H-ey_mgtbqknScUu9n-6" edge="1">
          <mxGeometry width="50" height="50" relative="1" as="geometry">
            <mxPoint x="10" y="602" as="sourcePoint" />
            <mxPoint x="42" y="540" as="targetPoint" />
          </mxGeometry>
        </mxCell>
        <mxCell id="DhNcV1jzYwqw7QJ_wAd7-1" value="Identificado" style="ellipse;whiteSpace=wrap;html=1;aspect=fixed;" vertex="1" parent="1">
          <mxGeometry x="-1220" y="560" width="80" height="80" as="geometry" />
        </mxCell>
        <mxCell id="DhNcV1jzYwqw7QJ_wAd7-2" value="" style="endArrow=none;html=1;rounded=0;entryX=0;entryY=0.5;entryDx=0;entryDy=0;exitX=1;exitY=0.5;exitDx=0;exitDy=0;" edge="1" parent="1" source="DhNcV1jzYwqw7QJ_wAd7-1" target="6HYCHuuXtSyffhq5qboj-23">
          <mxGeometry width="50" height="50" relative="1" as="geometry">
            <mxPoint x="-1070" y="805" as="sourcePoint" />
            <mxPoint x="-1000" y="750" as="targetPoint" />
          </mxGeometry>
        </mxCell>
      </root>
    </mxGraphModel>
  </diagram>
</mxfile>
